<?xml version="1.0" encoding="utf-8"?>
<svg version="1.1" xmlns="http://www.w3.org/2000/svg" viewBox="0 0 18 18" enable-background="new 0 0 18 18">
 <path d="M16.8,1.5c0-0.8-0.7-1.2-1.4-0.9c-0.3,0.1-0.5,0.2-0.8,0.3c-1.3,0.5-2.7,0.9-4.1,1.2C9.3,2.3,6.3,2.2,4.3,4.2
	C2.1,6.4,1.8,9.9,3,12.7C3,12.9,3,13,2.9,13.2c-0.6,1-1,1.8-1.4,2.8c-0.2,0.5,0,0.9,0.5,1.1c0.4,0.1,0.3,0.2,0.7,0.3
	c0.5,0.2,0.9,0,1.1-0.5C4.1,15.9,4.5,15,5,14.2C5.1,14,5.2,14,5.4,14c1.6,0.5,3.4,0.7,4.9,0.2c2.9-0.9,4.9-2.8,5.8-5.8
	C17.1,5.7,16.8,2.1,16.8,1.5z M7.4,10.4c-1.5,2.1-2.5,2-2.5,1.5c0-1.9,2.7-4.3,6.2-5.3C11.1,6.6,9.3,7.8,7.4,10.4z"/>
</svg>
